<?xml version="1.0" encoding="UTF-8" standalone="no"?>
<svg
   version="1.0"
   preserveAspectRatio="xMidYMid meet"
   viewBox="271.28 79 1248.43 1354"
   id="svg143"
   sodipodi:docname="Lourian-Bikes-Logo-cropped.svg"
   inkscape:version="1.1.2 (0a00cf5339, 2022-02-04, custom)"
   xmlns:inkscape="http://www.inkscape.org/namespaces/inkscape"
   xmlns:sodipodi="http://sodipodi.sourceforge.net/DTD/sodipodi-0.dtd"
   xmlns="http://www.w3.org/2000/svg"
   xmlns:svg="http://www.w3.org/2000/svg">
  <defs
     id="defs147" />
  <sodipodi:namedview
     id="namedview145"
     pagecolor="#ffffff"
     bordercolor="#666666"
     borderopacity="1.0"
     inkscape:pageshadow="2"
     inkscape:pageopacity="0.0"
     inkscape:pagecheckerboard="0"
     showgrid="false"
     inkscape:zoom="0.36041359"
     inkscape:cx="287.17008"
     inkscape:cy="627.05738"
     inkscape:window-width="1366"
     inkscape:window-height="703"
     inkscape:window-x="0"
     inkscape:window-y="0"
     inkscape:window-maximized="1"
     inkscape:current-layer="layer2" />
  <g
     inkscape:groupmode="layer"
     id="layer2"
     inkscape:label="layer 1">
    <ellipse
       style="display:inline;fill:#e3dbdb;stroke:#460000;stroke-width:1.01431"
       id="path583"
       cx="893.95325"
       cy="771.34186"
       rx="728.90814"
       ry="685.88312" />
  </g>
  <g
     inkscape:groupmode="layer"
     id="layer1"
     inkscape:label="layer 2"
     style="display:inline">
    <g
       transform="matrix(0.1,0,0,-0.1,-4.65858,2414.2261)"
       fill="#000000"
       stroke="none"
       id="g141">
      <path
         d="m 8933,23177 c -11,-19 -307,-397 -657,-841 -350,-444 -636,-810 -636,-814 0,-10 138,-92 154,-92 7,0 79,27 161,60 82,33 153,60 158,60 5,0 41,-24 79,-52 53,-41 79,-70 113,-128 25,-41 48,-80 53,-87 4,-7 50,-19 102,-28 l 95,-15 102,31 c 56,18 108,29 116,26 27,-10 133,-214 208,-401 l 76,-188 20,28 c 11,16 55,86 97,157 43,70 84,127 92,127 8,0 46,-16 85,-36 39,-19 75,-34 80,-32 5,2 40,41 79,88 61,73 70,89 66,115 -3,17 -8,51 -11,76 l -7,45 36,-4 c 20,-2 36,-1 36,3 0,4 -25,84 -55,178 -30,93 -55,173 -55,177 0,4 18,14 40,23 37,14 40,18 40,55 0,41 11,52 51,52 17,0 45,-50 148,-262 71,-145 199,-403 284,-575 l 157,-312 -485,-488 c -442,-445 -486,-492 -496,-533 -8,-29 -11,-146 -10,-332 2,-315 -6,-377 -56,-470 -90,-166 -344,-253 -804,-278 -276,-15 -571,-64 -636,-106 -58,-37 -2,-149 121,-243 149,-115 396,-132 967,-67 480,55 599,56 752,5 285,-94 561,-292 647,-465 30,-60 35,-78 35,-144 0,-65 -4,-82 -30,-129 -69,-125 -243,-210 -604,-297 -267,-64 -743,-145 -1286,-219 -330,-45 -466,-65 -610,-91 -549,-100 -906,-259 -999,-447 -66,-131 -12,-287 152,-444 222,-213 423,-276 937,-293 230,-7 589,-2 1335,20 649,19 1283,24 1470,11 192,-13 490,-54 548,-75 20,-7 69,-23 107,-36 225,-72 381,-204 436,-367 43,-129 10,-332 -78,-492 -161,-290 -372,-497 -705,-691 -68,-39 -130,-75 -138,-80 -31,-19 -370,-180 -377,-180 -4,0 -71,-27 -148,-59 -301,-128 -465,-188 -920,-337 -546,-179 -1171,-354 -1826,-513 -134,-32 -271,-66 -304,-75 -52,-13 -54,-15 -15,-10 25,4 311,53 635,110 325,57 611,104 637,104 107,0 224,-74 276,-175 36,-71 37,-135 13,-595 -12,-217 -43,-827 -71,-1355 -27,-528 -51,-993 -54,-1032 l -6,-73 h 305 305 l -6,57 c -2,32 -25,452 -49,933 -25,481 -56,1086 -70,1345 -30,555 -30,625 -9,688 21,61 94,141 158,174 89,45 127,42 571,-36 441,-77 2151,-378 2365,-416 74,-13 137,-22 139,-20 1,2 -86,248 -194,547 -108,299 -199,559 -202,579 -8,56 21,129 70,176 23,22 683,559 1467,1194 784,634 1486,1202 1560,1262 74,60 136,112 137,116 2,3 -158,80 -354,171 -196,91 -373,177 -393,191 -46,34 -80,104 -80,166 0,47 29,139 471,1497 88,269 158,490 157,492 -2,1 -98,-17 -213,-42 -1127,-240 -1630,-344 -1657,-344 -48,0 -132,43 -160,81 -14,19 -105,223 -203,454 -98,231 -181,422 -184,425 -4,3 -24,46 -45,95 -205,481 -496,1106 -742,1595 -254,504 -258,510 -295,510 -20,0 -133,-60 -362,-191 -182,-106 -342,-201 -354,-213 l -22,-21 35,-83 c 33,-79 34,-86 24,-144 -5,-34 -8,-63 -7,-64 2,-2 34,17 72,41 39,25 74,45 78,45 5,0 22,-9 38,-21 28,-20 32,-20 70,-5 21,9 47,16 57,16 10,0 55,-38 102,-85 46,-46 85,-83 86,-82 1,1 32,157 68,347 37,190 69,352 72,360 6,16 37,-40 225,-409 126,-246 129,-254 112,-273 -15,-17 -27,-20 -80,-15 l -62,5 -62,-90 c -46,-66 -66,-87 -78,-82 -33,13 -51,16 -51,8 0,-5 -11,-22 -23,-38 l -24,-29 -51,94 c -40,74 -70,113 -141,184 l -91,89 -50,-18 c -49,-18 -50,-17 -83,3 l -33,20 -83,-51 c -45,-27 -85,-48 -88,-44 -3,3 -1,40 5,82 10,73 9,77 -21,150 l -31,75 -241,-241 -241,-241 -639,1286 c -444,893 -643,1285 -654,1285 -9,0 -26,-15 -38,-33 z m 717,-1383 c 0,-2 -13,-4 -28,-4 -41,0 -61,-20 -64,-64 -3,-35 -7,-41 -37,-51 -19,-6 -37,-17 -39,-23 -2,-6 19,-83 47,-171 28,-87 51,-162 51,-166 0,-4 -11,-4 -24,-1 -14,3 -27,2 -30,-3 -3,-4 0,-47 6,-94 l 11,-85 -53,-64 c -30,-35 -55,-65 -57,-67 -2,-2 -5,-2 -7,0 -4,4 -197,926 -222,1059 -7,41 -25,127 -40,190 -15,63 -33,148 -40,188 -7,40 -18,81 -24,91 -5,11 -10,32 -10,48 0,28 -13,97 -70,378 -16,82 -30,154 -30,160 0,5 149,-289 330,-654 182,-365 330,-665 330,-667 z m -700,1229 c 0,-5 -97,-127 -216,-273 -354,-436 -681,-860 -868,-1127 -74,-106 -96,-129 -96,-102 0,42 484,681 975,1287 157,194 205,244 205,215 z m -227,-480 c -172,-201 -289,-351 -468,-600 -131,-183 -242,-330 -247,-327 -5,4 -7,11 -5,18 2,6 111,159 241,340 176,244 296,398 463,593 146,170 230,260 236,254 6,-6 -72,-105 -220,-278 z m 280,144 c -4,-7 -100,-121 -214,-254 -175,-204 -237,-287 -396,-523 -103,-154 -194,-280 -201,-280 -8,0 -12,6 -9,13 2,6 89,136 191,289 156,230 223,318 402,528 118,138 219,248 224,245 6,-4 7,-12 3,-18 z m -182,-443 c -180,-221 -230,-290 -342,-474 -72,-118 -133,-217 -135,-219 -3,-3 -9,0 -14,5 -9,10 231,411 292,487 283,350 392,477 400,469 6,-6 -65,-102 -201,-268 z m 239,30 c 0,-3 -53,-68 -117,-143 -65,-74 -167,-208 -228,-297 -60,-89 -152,-223 -203,-299 -61,-88 -97,-134 -104,-127 -16,16 359,559 502,727 106,124 150,165 150,139 z m 30,-185 c 0,-6 -68,-88 -151,-182 -135,-154 -160,-189 -234,-322 -76,-137 -106,-178 -105,-143 1,7 38,79 83,160 72,130 100,168 236,323 144,164 171,191 171,164 z m 40,-151 c 0,-7 -33,-55 -73,-107 -40,-53 -131,-178 -201,-278 -118,-169 -146,-202 -146,-172 0,24 394,569 411,569 5,0 9,-5 9,-12 z m 38,-196 c -7,-10 -27,-33 -44,-53 -17,-20 -86,-109 -153,-198 -67,-89 -126,-159 -132,-156 -12,8 -15,4 116,180 127,171 203,258 216,249 6,-3 5,-12 -3,-22 z m 45,-195 c -125,-146 -318,-346 -326,-338 -15,15 317,376 335,365 5,-3 1,-16 -9,-27 z m 87,-109 c -1,-17 -310,-380 -329,-386 -10,-3 -12,0 -8,12 9,22 319,386 329,386 4,0 8,-6 8,-12 z m 2074,-47 c 5,-7 -504,-311 -520,-311 -3,0 -4,7 -2,15 3,13 490,304 510,305 4,0 9,-4 12,-9 z m -2064,-129 c 0,-13 -219,-272 -230,-272 -23,0 -4,28 98,150 95,114 132,148 132,122 z m 2061,-17 c 0,-11 -465,-295 -482,-295 -33,0 21,39 232,167 129,78 238,141 242,140 5,-2 8,-7 8,-12 z m -32,-148 c -42,-33 -212,-147 -219,-147 -27,0 0,26 97,95 70,49 110,72 117,65 5,-5 8,-11 5,-13 z m -29,-131 c 0,-14 -67,-76 -82,-76 -18,0 -6,22 30,55 41,38 52,42 52,21 z m 610,-400 c 119,-246 306,-656 464,-1019 116,-264 117,-267 99,-290 -10,-13 -316,-343 -681,-734 -501,-537 -674,-717 -706,-732 -140,-68 -306,36 -306,191 0,29 38,248 85,488 46,239 161,829 254,1310 93,481 171,884 173,895 3,14 18,-7 51,-72 25,-50 51,-94 55,-97 5,-3 21,12 36,34 28,42 36,46 66,30 17,-9 27,1 85,83 l 65,93 58,-7 c 48,-5 60,-4 77,12 11,11 21,19 23,19 2,0 48,-92 102,-204 z"
         id="path95" />
      <path
         d="m 9070,22822 c 0,-14 71,-122 81,-122 16,0 10,21 -23,76 -29,46 -58,70 -58,46 z"
         id="path97" />
      <path
         d="m 9126,22591 c -8,-12 250,-375 269,-379 8,-2 15,-1 15,3 0,8 -259,373 -270,380 -5,3 -11,1 -14,-4 z"
         id="path99" />
      <path
         d="m 9175,22340 c -3,-5 57,-85 133,-177 76,-92 160,-202 186,-243 58,-90 52,-83 65,-76 18,12 -85,163 -231,339 -77,92 -141,167 -143,167 -2,0 -7,-4 -10,-10 z"
         id="path101" />
      <path
         d="m 9215,22120 c -8,-13 283,-360 302,-360 9,0 11,5 7,13 -11,18 -295,357 -299,357 -2,0 -7,-4 -10,-10 z"
         id="path103" />
      <path
         d="m 9243,21956 c 3,-8 30,-48 60,-88 29,-40 73,-106 96,-145 39,-68 61,-90 61,-60 0,33 -186,306 -209,307 -7,0 -11,-6 -8,-14 z"
         id="path105" />
      <path
         d="m 9310,21688 c 0,-6 28,-59 62,-117 95,-165 109,-184 119,-174 6,6 -23,65 -77,156 -80,135 -104,167 -104,135 z"
         id="path107" />
      <path
         d="m 9366,21432 c -6,-10 98,-205 113,-210 21,-7 11,20 -40,114 -50,94 -63,111 -73,96 z"
         id="path109" />
      <path
         d="m 6351,21543 c -12,-10 -99,-184 -193,-388 l -172,-370 -4,-117 c -2,-65 -1,-118 2,-118 4,0 31,16 61,37 l 56,36 32,-29 c 44,-40 45,-42 63,-106 9,-32 22,-58 28,-58 33,0 88,55 121,120 19,38 39,71 44,74 14,9 25,-12 64,-124 35,-98 37,-113 37,-222 0,-65 3,-118 8,-117 4,0 33,36 64,79 39,54 70,86 98,100 22,11 40,26 40,32 0,15 -112,538 -145,678 -43,184 -77,351 -72,356 4,5 214,-58 540,-162 62,-20 757,-357 757,-367 0,-2 -11,-41 -25,-88 -19,-66 -25,-107 -25,-191 v -108 l -70,-35 c -45,-23 -91,-38 -129,-41 -33,-4 -65,-10 -72,-14 -19,-12 4,-226 35,-325 14,-44 26,-83 26,-87 0,-20 -132,88 -174,141 -26,34 -54,61 -61,61 -25,0 -95,-111 -117,-187 -11,-40 -24,-71 -28,-68 -3,2 -42,61 -85,131 l -79,127 -128,84 c -129,84 -152,95 -142,69 4,-10 -8,-24 -33,-39 -23,-14 -70,-67 -113,-126 -40,-56 -79,-100 -84,-98 -7,2 -13,64 -16,163 -5,146 -8,165 -36,238 l -31,79 -31,-55 c -22,-39 -48,-66 -87,-92 -30,-20 -61,-36 -68,-36 -9,0 -23,30 -37,78 -15,53 -30,84 -48,98 l -26,22 -57,-39 c -85,-57 -83,-59 -89,54 l -5,98 -259,-563 c -143,-310 -290,-627 -327,-704 -38,-78 -138,-308 -224,-510 -86,-203 -167,-388 -181,-411 -14,-24 -42,-53 -64,-65 -22,-13 -40,-25 -40,-28 0,-3 166,-56 368,-118 l 367,-113 565,-9 c 1057,-17 1035,-17 1033,0 -1,8 -106,490 -233,1070 -127,580 -229,1060 -228,1066 2,6 53,-22 114,-62 l 112,-73 93,-150 c 55,-88 100,-150 110,-151 11,0 23,26 42,96 19,65 39,110 61,140 l 34,44 38,-51 c 37,-48 207,-179 233,-179 16,0 14,12 -23,139 -28,93 -61,296 -51,309 1,1 27,7 57,12 31,5 92,25 137,46 l 81,37 1,116 c 0,97 5,129 27,199 l 27,82 95,-53 c 383,-214 1508,-863 1521,-878 15,-16 21,-13 99,66 l 83,84 -82,397 c -48,235 -88,405 -98,418 -13,16 -89,58 -154,84 -4,2 -54,-72 -110,-163 -65,-106 -108,-165 -117,-163 -9,2 -48,87 -96,208 -77,196 -180,399 -201,400 -5,0 -50,-12 -98,-27 -87,-26 -90,-26 -195,-14 -59,7 -111,17 -117,21 -5,5 -32,46 -59,92 -45,76 -123,156 -169,174 -8,3 -81,-22 -162,-55 -81,-34 -154,-61 -163,-61 -17,0 -165,88 -170,101 -2,6 -56,-56 -119,-136 -63,-80 -116,-145 -119,-145 -2,0 -58,27 -123,60 -91,45 -185,79 -397,145 -154,48 -321,100 -372,116 -108,34 -113,34 -141,12 z m 16,-172 c -12,-48 -304,-650 -314,-651 -7,0 -13,4 -13,8 0,5 52,119 116,253 64,134 133,281 154,327 21,45 44,82 51,82 6,0 9,-8 6,-19 z m 56,-108 c 6,-11 -268,-576 -282,-581 -6,-2 -11,2 -11,9 0,18 272,579 281,579 4,0 10,-3 12,-7 z m 37,-143 c 0,-9 -216,-449 -225,-459 -2,-1 -8,0 -14,3 -7,4 34,96 104,236 101,202 135,257 135,220 z m 20,-149 c 0,-20 -117,-285 -128,-289 -7,-2 -12,1 -12,7 0,11 92,236 112,274 9,18 28,24 28,8 z m 50,-133 c 0,-28 -54,-138 -68,-138 -8,0 -12,6 -9,13 46,113 77,164 77,125 z m 60,-92 c 0,-27 -92,-178 -102,-168 -7,7 6,39 38,96 46,82 64,103 64,72 z m 40,-103 c 0,-5 -20,-39 -43,-77 -41,-66 -67,-92 -67,-66 0,21 84,149 98,150 6,0 12,-3 12,-7 z m 20,-129 c 0,-19 -96,-184 -107,-184 -7,0 -13,2 -13,6 0,17 97,184 108,184 6,0 12,-3 12,-6 z"
         id="path111" />
      <path
         d="m 6530,21328 c 0,-16 820,-1010 838,-1016 6,-2 12,1 12,7 0,12 -826,1015 -840,1019 -6,2 -10,-2 -10,-10 z"
         id="path113" />
      <path
         d="m 6650,21318 c 0,-13 744,-860 761,-866 35,-13 -26,64 -278,349 -157,178 -327,370 -376,427 -88,99 -107,115 -107,90 z"
         id="path115" />
      <path
         d="m 11470,21323 c 0,-4 41,-116 91,-250 81,-215 108,-273 109,-230 1,29 -175,487 -187,487 -7,0 -13,-3 -13,-7 z"
         id="path117" />
      <path
         d="m 6860,21249 c 0,-9 678,-730 700,-744 5,-3 11,-1 15,4 6,10 -690,751 -706,751 -5,0 -9,-5 -9,-11 z"
         id="path119" />
      <path
         d="m 11447,21163 c -7,-12 109,-397 122,-401 18,-6 13,18 -43,208 -52,174 -67,212 -79,193 z"
         id="path121" />
      <path
         d="m 7110,21152 c 0,-8 579,-342 594,-342 3,0 6,6 6,13 0,12 -540,324 -580,334 -11,3 -20,1 -20,-5 z"
         id="path123" />
      <path
         d="m 6573,21135 c 5,-11 634,-883 653,-904 3,-3 9,0 14,5 12,12 -638,913 -659,913 -7,1 -11,-5 -8,-14 z"
         id="path125" />
      <path
         d="m 11398,20985 c -10,-10 67,-305 80,-305 17,0 16,3 -24,165 -34,134 -42,154 -56,140 z"
         id="path127" />
      <path
         d="m 7270,20968 c 1,-7 80,-74 176,-148 203,-156 204,-156 204,-136 0,14 -355,296 -372,296 -5,0 -8,-6 -8,-12 z"
         id="path129" />
      <path
         d="m 6610,20935 c 0,-2 115,-178 255,-390 223,-337 286,-423 273,-372 -7,30 -502,767 -514,767 -8,0 -14,-2 -14,-5 z"
         id="path131" />
      <path
         d="m 11360,20793 c 0,-60 14,-123 27,-123 11,0 13,12 7,63 -4,34 -9,65 -11,70 -8,14 -23,7 -23,-10 z"
         id="path133" />
      <path
         d="m 6675,20650 c -4,-6 15,-41 42,-78 27,-37 76,-104 109,-149 32,-45 62,-83 67,-83 21,0 -2,41 -94,167 -119,163 -115,158 -124,143 z"
         id="path135" />
      <path
         d="m 9257,19754 c -48,-36 -212,-188 -365,-337 -367,-359 -482,-452 -687,-554 -458,-230 -815,-486 -966,-693 l -43,-60 -231,6 c -126,2 -491,9 -810,14 l -580,10 -438,135 c -475,147 -410,131 -1822,429 -198,42 -370,78 -382,81 -13,3 -23,3 -23,0 0,-4 140,-437 312,-963 183,-565 313,-978 316,-1009 6,-66 -32,-152 -83,-186 -18,-12 -193,-96 -389,-187 -195,-91 -354,-168 -353,-171 1,-4 704,-575 1562,-1269 858,-694 1581,-1283 1606,-1310 55,-58 76,-121 61,-187 -5,-22 -76,-224 -157,-447 -81,-224 -145,-409 -143,-411 2,-2 53,7 113,21 177,39 250,54 256,54 4,0 62,96 129,213 200,347 408,673 657,1027 l 45,64 -3,91 c -5,112 13,131 23,26 12,-116 21,-104 33,42 5,53 11,77 18,74 8,-2 11,-26 9,-68 l -3,-64 26,28 c 29,33 30,38 11,100 -16,55 -2,75 18,25 7,-18 16,-40 20,-48 3,-8 4,13 1,48 -4,41 -2,62 5,62 11,0 14,-7 25,-54 10,-46 24,-18 27,57 4,78 22,90 26,17 l 3,-51 18,23 c 10,12 17,27 16,33 -2,5 -6,25 -9,43 -7,42 20,45 29,2 10,-46 25,-25 25,36 0,30 4,54 9,54 12,0 21,-25 21,-57 0,-24 1,-25 18,-10 10,9 24,33 31,54 7,21 18,44 23,50 16,20 28,5 18,-22 -9,-24 -9,-24 50,8 32,18 62,28 67,24 4,-5 0,-14 -10,-21 -21,-16 -22,-26 -2,-26 8,0 15,-4 15,-10 0,-5 -21,-10 -46,-10 -32,0 -54,-7 -72,-21 l -27,-21 33,7 c 25,5 32,3 32,-8 0,-9 -14,-17 -37,-22 -21,-4 -54,-14 -73,-22 l -35,-16 29,-6 c 51,-10 44,-31 -11,-31 -40,0 -54,-5 -73,-25 l -23,-25 h 31 c 17,0 33,-4 37,-9 6,-10 -9,-16 -66,-25 -20,-4 -45,-16 -55,-27 -18,-20 -18,-20 11,-9 19,7 32,7 38,1 10,-10 5,-13 -75,-45 -54,-21 -47,-37 9,-20 55,17 73,18 73,4 0,-12 2,-11 -95,-40 -51,-15 -75,-28 -90,-48 -10,-15 -13,-22 -5,-16 25,19 112,36 123,25 7,-7 4,-12 -9,-16 -136,-43 -154,-55 -216,-139 -88,-119 -260,-376 -385,-576 -93,-147 -363,-604 -363,-614 0,-1 32,4 70,13 39,9 70,20 70,25 0,8 245,249 474,465 128,120 412,374 544,485 l 92,77 v 80 c 0,64 3,79 15,79 12,0 15,-14 15,-66 v -66 l 23,15 c 19,13 22,22 19,76 -2,35 1,61 6,61 13,0 22,-25 22,-61 0,-31 11,-37 29,-15 8,9 9,37 5,86 -6,60 -5,72 7,68 9,-3 15,-24 17,-61 2,-31 6,-57 10,-57 4,0 18,7 30,16 21,14 22,20 16,95 -5,52 -3,79 3,79 13,0 23,-34 23,-82 0,-43 11,-54 40,-36 17,11 20,23 20,80 0,78 16,91 25,21 4,-27 7,-51 8,-55 1,-4 12,1 24,10 21,15 22,21 12,55 -10,37 -5,62 11,52 4,-3 11,-21 14,-41 9,-47 26,-39 45,21 9,27 22,51 30,53 14,5 12,-18 -5,-63 -6,-15 -4,-16 14,-6 11,6 26,27 32,46 13,40 35,48 28,10 -6,-29 -7,-29 39,-10 43,18 43,18 43,1 0,-8 -17,-20 -37,-27 l -36,-12 27,-14 c 19,-10 25,-18 18,-25 -7,-7 -17,-6 -30,1 -25,13 -62,14 -81,2 -11,-7 -5,-13 24,-25 26,-11 35,-20 28,-27 -7,-7 -23,-5 -52,7 -36,14 -46,15 -67,3 l -25,-13 35,-18 c 20,-10 36,-25 36,-33 0,-19 0,-19 -51,9 -32,19 -47,22 -61,15 -26,-14 -22,-23 12,-36 17,-6 30,-16 30,-22 0,-15 -14,-14 -56,4 -28,12 -40,12 -57,3 -21,-11 -21,-12 10,-20 18,-5 35,-12 38,-17 10,-17 -11,-21 -50,-10 -28,8 -45,8 -64,-1 -25,-12 -25,-13 -6,-21 11,-4 32,-8 47,-8 25,-1 46,-17 35,-27 -3,-3 -34,-1 -70,4 -56,7 -68,6 -87,-10 l -22,-18 h 40 c 47,0 72,-8 72,-22 0,-7 -25,-9 -69,-6 -93,7 -109,-5 -37,-28 31,-10 56,-24 56,-31 0,-17 -5,-17 -78,8 l -62,21 -152,-130 c -84,-72 -211,-183 -283,-247 -159,-144 -676,-637 -672,-642 2,-1 30,4 63,12 56,14 162,38 304,71 71,16 106,25 595,145 670,164 1608,422 1990,547 66,22 180,59 253,82 73,23 145,48 160,56 15,8 33,14 40,14 8,0 66,18 130,41 681,240 1185,485 1343,654 59,63 147,190 175,255 14,30 33,73 43,95 53,112 63,262 23,351 -24,54 -115,150 -167,177 -106,55 -147,70 -238,92 -56,13 -142,30 -192,37 -118,16 -498,16 -900,0 -583,-24 -776,-27 -1250,-20 -619,9 -957,40 -1290,120 -409,97 -674,269 -798,517 -38,77 -42,90 -41,160 0,119 44,199 159,291 242,192 694,318 1500,415 420,51 1079,154 1310,205 419,93 556,171 584,333 35,199 -100,406 -344,529 -27,14 -90,40 -140,59 -87,31 -95,32 -280,37 -108,2 -322,-3 -497,-12 -683,-37 -973,-8 -1126,114 -105,83 -142,193 -86,259 39,46 153,97 309,138 l 140,37 305,2 c 338,2 422,11 561,65 137,53 203,111 254,221 37,82 53,177 70,421 10,146 22,251 35,303 19,73 28,91 109,205 7,10 12,19 10,19 -2,0 -43,-30 -92,-66 z"
         id="path137" />
      <path
         d="m 7138,12673 c 6,-2 18,-2 25,0 6,3 1,5 -13,5 -14,0 -19,-2 -12,-5 z"
         id="path139" />
    </g>
  </g>
  <ellipse
     style="fill:#e3dbdb;stroke:#460000;stroke-width:1.00157"
     id="path373"
     cx="1745.2928"
     cy="603.39545"
     rx="8.8887987"
     ry="2.4785283" />
</svg>
